#!OML:ASF F:\VICON\USERDATA\INSTALL\rory3\rory3.ASF
:FULLY-SPECIFIED
:DEGREES
326
root 2.56637 15.7143 7.63445 50.0634 36.1764 10.21
lowerback 58.6173 -1.02518 9.11133
upperback 5.67787 5.17018 1.49366
thorax -14.6261 1.9242 -4.85087
lowerneck -13.4669 -10.752 -21.5706
upperneck 17.8845 -12.2599 12.3212
head 10.0817 -5.95776 6.12614
rclavicle -1.27222e-014 5.94366e-014
rhumerus 47.6268 -2.18622 -61.6064
rradius 17.8387
rwrist 48.7192
rhand -48.2486 4.45903
rfingers 7.12502
rthumb -20.9073 -24.4343
lclavicle -1.27222e-014 5.94366e-014
lhumerus -48.9713 -37.9854 107.128
lradius 102.786
lwrist -31.2449
lhand -61.7906 54.586
lfingers 7.12502
lthumb -33.8548 81.4019
rfemur -96.5213 -22.4313 32.6686
rtibia 69.472
rfoot -16.6443 2.7834
rtoes 4.63467
lfemur -88.6858 -1.28546 -32.9811
ltibia 55.7879
lfoot -5.06433 -20.7285
ltoes 8.59699
327
root 2.57257 15.7238 7.6349 50.0437 36.2736 10.1919
lowerback 58.5697 -1.08324 9.2186
upperback 5.70447 5.15926 1.47392
thorax -14.5782 1.92088 -4.91292
lowerneck -13.4775 -10.7584 -21.6707
upperneck 17.8079 -12.2976 12.5655
head 10.0881 -5.95986 6.22469
rclavicle -6.67916e-014 -3.53837e-014
rhumerus 47.6523 -2.22408 -61.5011
rradius 17.7855
rwrist 48.7266
rhand -48.3728 4.78692
rfingers 7.12502
rthumb -21.0266 -24.0932
lclavicle -6.67916e-014 -3.53837e-014
lhumerus -48.822 -38.1206 107.052
lradius 102.693
lwrist -31.0367
lhand -61.9049 53.9651
lfingers 7.12502
lthumb -33.9633 80.757
rfemur -96.4561 -22.5269 32.7722
rtibia 69.3719
rfoot -16.6357 2.79874
rtoes 4.61811
lfemur -88.522 -1.4091 -32.6543
ltibia 55.6707
lfoot -4.72317 -20.5921
ltoes 9.99411
328
root 2.57879 15.7313 7.63562 50.0496 36.4029 10.1322
lowerback 58.4437 -1.15369 9.36025
upperback 5.75282 5.1412 1.44101
thorax -14.4946 1.91666 -5.00176
lowerneck -13.6608 -10.8074 -21.5619
upperneck 17.7536 -12.3692 12.6361
head 10.1129 -5.97409 6.21373
rclavicle 9.22361e-014 1.11319e-014
rhumerus 47.6881 -2.24338 -61.4895
rradius 17.7984
rwrist 48.5425
rhand -48.4369 4.72044
rfingers 7.12502
rthumb -21.0881 -24.1528
lclavicle 9.22361e-014 1.11319e-014
lhumerus -48.6043 -38.2815 106.93
lradius 102.638
lwrist -30.692
lhand -61.9431 53.1546
lfingers 7.12502
lthumb -33.9997 79.9384
rfemur -96.4104 -22.5839 32.8861
rtibia 69.2505
rfoot -16.5668 2.88404
rtoes 5.15216
lfemur -88.4674 -1.50977 -32.418
ltibia 55.5418
lfoot -4.54381 -20.5453
ltoes 10.1942
329
root 2.58177 15.7351 7.63487 50.1491 36.5347 10.158
lowerback 58.2551 -1.15757 9.40648
upperback 5.78415 5.15366 1.49455
thorax -14.4434 1.92358 -4.96918
lowerneck -13.8011 -10.8777 -21.4415
upperneck 17.6996 -12.4408 12.5323
head 10.1163 -6.00373 6.13659
rclavicle -8.5875e-014 -6.65929e-014
rhumerus 47.6683 -2.22862 -61.3699
rradius 17.8533
rwrist 48.3807
rhand -48.2139 4.39129
rfingers 7.12502
rthumb -20.8739 -24.5057
lclavicle -8.5875e-014 -6.65929e-014
lhumerus -48.416 -38.3581 106.94
lradius 102.588
lwrist -30.4723
lhand -61.9832 53.5297
lfingers 7.12502
lthumb -34.0378 80.305
rfemur -96.4171 -22.6487 32.9446
rtibia 69.1187
rfoot -16.5434 2.87206
rtoes 5.07143
lfemur -88.4704 -1.69838 -32.2219
ltibia 55.3826
lfoot -4.4161 -20.4546
ltoes 9.98385
330
root 2.58393 15.7506 7.63382 50.1041 36.5376 10.1645
lowerback 58.1953 -1.1304 9.38189
upperback 5.82094 5.16144 1.49483
thorax -14.3974 1.93233 -4.96221
lowerneck -13.9696 -10.9316 -21.3774
upperneck 17.72 -12.4676 12.399
head 10.145 -6.01863 6.06587
rclavicle 6.04305e-014 9.48203e-014
rhumerus 47.6797 -2.49469 -61.653
rradius 17.7862
rwrist 48.5755
rhand -47.8718 4.65001
rfingers 7.12502
rthumb -20.5452 -24.2828
lclavicle 6.04305e-014 9.48203e-014
lhumerus -48.2057 -38.4839 106.864
lradius 102.543
lwrist -30.2773
lhand -61.8941 54.1231
lfingers 7.12502
lthumb -33.9531 80.9172
rfemur -96.217 -22.6622 32.8523
rtibia 68.9188
rfoot -16.5195 2.86557
rtoes 5.045
lfemur -88.2891 -1.72201 -32.2006
ltibia 55.1779
lfoot -4.45097 -20.4254
ltoes 9.45192
331
root 2.58501 15.7736 7.63453 49.9577 36.4594 10.1352
lowerback 58.2397 -1.05044 9.27698
upperback 5.81896 5.1858 1.458
thorax -14.4091 1.94588 -4.97118
lowerneck -14.0017 -10.9187 -21.4258
upperneck 17.6928 -12.458 12.5103
head 10.1509 -6.00674 6.11529
rclavicle 2.22639e-014 -2.26615e-014
rhumerus 47.6082 -2.70074 -61.9424
rradius 17.6438
rwrist 48.6923
rhand -47.7012 4.94507
rfingers 7.12502
rthumb -20.3813 -24.0054
lclavicle 2.22639e-014 -2.26615e-014
lhumerus -48.0411 -38.6148 106.77
lradius 102.471
lwrist -30.0895
lhand -61.7437 54.9354
lfingers 7.12502
lthumb -33.8102 81.7611
rfemur -95.8549 -22.6113 32.6822
rtibia 68.666
rfoot -16.4671 2.77671
rtoes 4.95882
lfemur -87.9929 -1.60577 -32.2706
ltibia 54.9322
lfoot -4.50382 -20.45
ltoes 9.6544
332
root 2.58539 15.8033 7.6332 49.6677 36.4699 9.94536
lowerback 58.3811 -0.98652 9.24058
upperback 5.78342 5.24945 1.44478
thorax -14.4586 1.96782 -4.99975
lowerneck -14.1478 -10.9245 -21.2696
upperneck 17.6939 -12.4531 12.4103
head 10.158 -5.99912 6.04944
rclavicle 6.67916e-014 -3.35946e-014
rhumerus 47.5514 -2.79053 -62.1982
rradius 17.5386
rwrist 48.7743
rhand -47.7152 4.69362
rfingers 7.12502
rthumb -20.3947 -24.2554
lclavicle 6.67916e-014 -3.35946e-014
lhumerus -47.83 -38.695 106.636
lradius 102.357
lwrist -29.8265
lhand -61.5648 54.9732
lfingers 7.12502
lthumb -33.6403 81.8361
rfemur -95.4037 -22.5386 32.7212
rtibia 68.382
rfoot -16.4386 2.78576
rtoes 4.45486
lfemur -87.6436 -1.42874 -32.1693
ltibia 54.6649
lfoot -4.44071 -20.4697
ltoes 9.69961
333
root 2.58596 15.8294 7.63032 49.4588 36.4813 9.86749
lowerback 58.4304 -0.940025 9.21711
upperback 5.81307 5.29351 1.45118
thorax -14.4258 1.98972 -5.00125
lowerneck -14.3988 -11.0133 -20.9685
upperneck 17.6214 -12.4952 11.973
head 10.131 -6.0301 5.82083
rclavicle -1.46306e-013 5.50634e-014
rhumerus 47.5184 -2.83728 -62.2587
rradius 17.5251
rwrist 48.4663
rhand -47.5842 4.82908
rfingers 7.12502
rthumb -20.2688 -24.1334
lclavicle -1.46306e-013 5.50634e-014
lhumerus -47.4869 -38.8204 106.509
lradius 102.178
lwrist -29.5973
lhand -61.483 55.3777
lfingers 7.12502
lthumb -33.5625 82.2575
rfemur -94.9792 -22.5173 32.6057
rtibia 68.1132
rfoot -16.4368 2.861
rtoes 4.51685
lfemur -87.3027 -1.3457 -32.1261
ltibia 54.3887
lfoot -4.39274 -20.5008
ltoes 9.41495
334
root 2.58753 15.8432 7.62632 49.4335 36.4916 9.93868
lowerback 58.2304 -0.935997 9.20628
upperback 5.90705 5.26458 1.44167
thorax -14.3027 1.99151 -4.99428
lowerneck -14.6947 -11.1215 -20.6503
upperneck 17.6378 -12.5581 11.5114
head 10.1443 -6.07136 5.57789
rclavicle -3.18055e-015 -3.37934e-015
rhumerus 47.5112 -2.96984 -62.381
rradius 17.4937
rwrist 48.1642
rhand -47.3852 5.18992
rfingers 7.12502
rthumb -20.0776 -23.7927
lclavicle -3.18055e-015 -3.37934e-015
lhumerus -47.0945 -38.9788 106.356
lradius 102.062
lwrist -29.2514
lhand -61.3868 55.9237
lfingers 7.12502
lthumb -33.4711 82.8233
rfemur -94.7436 -22.5447 32.3919
rtibia 67.8867
rfoot -16.3487 2.79828
rtoes 4.17623
lfemur -87.0828 -1.39955 -32.1534
ltibia 54.1238
lfoot -4.28447 -20.5145
ltoes 9.24528
